<?xml version="1.0" encoding="UTF-8"?>
<svg id="Layer_1" data-name="Layer 1" xmlns="http://www.w3.org/2000/svg" version="1.1" viewBox="0 0 314.94 90.04">
  <defs>
    <style>
      .cls-1 {
        fill: none;
      }

      .cls-1, .cls-2, .cls-3, .cls-4 {
        stroke-width: 0px;
      }

      .cls-2, .cls-3 {
        fill: #416cb4;
      }

      .cls-2, .cls-4 {
        fill-rule: evenodd;
      }

      .cls-4 {
        fill: #fff;
      }
    </style>
  </defs>
  <g id="Logos">
    <g id="white">
      <path id="Fill-1" class="cls-4" d="M50.2,25.78c3.7,0,6.69-2.99,6.69-6.69s-2.99-6.69-6.69-6.69-6.69,2.99-6.69,6.69c0,3.7,2.99,6.69,6.69,6.69"/>
      <path id="Fill-2" class="cls-4" d="M66.43,48.55h0L30.28,12.4c-5.22,5.22-5.19,13.68.03,18.9l11.5,11.5-.03.03,6.52,6.52c.23.23.38.56.38.94s-.18.7-.41.94l-7.6,7.6c-.5.5-1.32.5-1.85,0l-7.63-7.63c-.5-.5-.5-1.32,0-1.85,5.19-5.55,1.32-12.21-1.09-14.47l-1.67-1.7-15.26,15.26c-1.03,1.03-1.03,2.67,0,3.7l24.74,24.74c1.03,1.03,2.67,1.03,3.7,0l24.68-24.68c.53-.44.88-1.12.88-1.88-.03-.7-.29-1.32-.73-1.76"/>
      <path id="Fill-3" class="cls-4" d="M100.65,42.98c-6.05-.79-7.04-2.03-7.04-4.49s2.32-4.08,6.08-4.08c4.14,0,6.19,1.35,6.87,4.49l.03.09h3.49l-.03-.15c-.59-4.67-4.26-7.22-10.36-7.22-5.61,0-9.69,2.99-9.69,7.13,0,5.19,4.84,6.54,10.04,7.25,5.43.76,7.1,1.88,7.1,4.84,0,2.76-2.79,4.75-6.66,4.75-6.08,0-7.31-2.67-7.75-5.58l-.03-.12h-3.73l.03.15c.47,3.79,2.85,8.31,11.48,8.31,5.93,0,10.39-3.35,10.39-7.75,0-5.19-3.93-6.78-10.21-7.63"/>
      <polyline id="Fill-4" class="cls-4" points="135.55 31.94 114.39 31.94 114.39 35.26 123.05 35.26 123.05 58.03 126.92 58.03 126.92 35.26 135.55 35.26 135.55 31.94"/>
      <path id="Fill-5" class="cls-4" d="M143.71,47.58l4.73-12.59,4.73,12.59h-9.45ZM146.14,31.94l-10.33,26.09h3.67l2.88-7.45h12.12l2.91,7.45h3.84l-10.15-26.09h-4.93Z"/>
      <polyline id="Fill-6" class="cls-4" points="161.76 35.26 170.41 35.26 170.41 58.03 174.26 58.03 174.26 35.26 182.92 35.26 182.92 31.94 161.76 31.94 161.76 35.26"/>
      <polyline id="Fill-7" class="cls-4" points="192.43 46.59 199.73 46.59 199.73 43.3 192.43 43.3 192.43 35.26 206.87 35.26 206.87 31.94 188.55 31.94 188.55 58.03 206.87 58.03 206.87 54.72 192.43 54.72 192.43 46.59"/>
      <polyline id="Fill-8" class="cls-4" points="216.99 31.94 213.12 31.94 213.12 58.03 230.58 58.03 230.58 54.72 216.99 54.72 216.99 31.94"/>
      <polyline id="Fill-9" class="cls-4" points="248.45 31.94 241.03 43.83 233.31 31.94 228.94 31.94 238.97 46.67 238.97 58.03 242.85 58.03 242.85 46.7 252.36 31.94 248.45 31.94"/>
    </g>
    <g>
      <path id="Fill-5-2" data-name="Fill-5" class="cls-2" d="M271.99,48.02l4.73-12.59,4.73,12.59h-9.45ZM274.43,32.35l-10.33,26.09h3.67l2.88-7.45h12.12l2.91,7.45h3.84l-10.15-26.09h-4.93Z"/>
      <polyline id="Fill-6-2" data-name="Fill-6" class="cls-2" points="296.7 32.35 296.7 58.44 300.54 58.44 300.54 32.35"/>
      <circle class="cls-3" cx="254.47" cy="56.12" r="2.32"/>
    </g>
  </g>
  <line id="Fill-6-3" data-name="Fill-6" class="cls-1" x1="120.82" y1="77.64" x2="117.39" y2="77.64"/>
</svg>