<svg xmlns="http://www.w3.org/2000/svg" xmlns:xlink="http://www.w3.org/1999/xlink" xmlns:inkscape="http://www.inkscape.org/namespaces/inkscape" version="1.1" width="314.937" height="90.0394" viewBox="0 0 314.937 90.0394">
<defs>
<clipPath id="clip_1">
<path transform="matrix(1,0,0,-1,0,90.0394)" d="M0 90.039H314.937V0H0Z"/>
</clipPath>
</defs>
<g inkscape:groupmode="layer" inkscape:label="Layer 1">
<g clip-path="url(#clip_1)">
<path transform="matrix(1,0,0,-1,50.2034,25.7781)" d="M0 0C3.698 0 6.691 2.994 6.691 6.691 6.691 10.389 3.698 13.383 0 13.383-3.698 13.383-6.691 10.389-6.691 6.691-6.691 2.994-3.698 0 0 0" fill="#030404" fill-rule="evenodd"/>
<path transform="matrix(1,0,0,-1,66.4331,48.552499)" d="M0 0V0L-36.157 36.157C-41.381 30.933-41.352 22.481-36.128 17.257L-24.623 5.752-24.653 5.723-18.137-.792C-17.903-1.027-17.756-1.35-17.756-1.732-17.756-2.113-17.932-2.436-18.167-2.671L-25.768-10.272C-26.267-10.771-27.089-10.771-27.617-10.272L-35.248-2.641C-35.746-2.142-35.746-1.321-35.248-.792-30.053 4.754-33.927 11.417-36.333 13.676L-38.006 15.379-53.268 .117C-54.295-.91-54.295-2.553-53.268-3.581L-28.527-28.321C-27.5-29.349-25.856-29.349-24.829-28.321L-.147-3.639C.382-3.199 .734-2.524 .734-1.761 .704-1.057 .44-.44 0 0" fill="#030404" fill-rule="evenodd"/>
<path transform="matrix(1,0,0,-1,100.6535,42.9763)" d="M0 0C-6.046 .792-7.044 2.025-7.044 4.49-7.044 7.014-4.725 8.57-.969 8.57 3.17 8.57 5.224 7.22 5.899 4.079L5.928 3.991H9.421L9.392 4.138C8.805 8.805 5.136 11.358-.969 11.358-6.574 11.358-10.654 8.364-10.654 4.226-10.654-.969-5.811-2.319-.616-3.023 4.813-3.786 6.486-4.901 6.486-7.865 6.486-10.624 3.698-12.62-.176-12.62-6.251-12.62-7.484-9.949-7.924-7.044L-7.953-6.926H-11.681L-11.651-7.073C-11.182-10.859-8.805-15.379-.176-15.379 5.752-15.379 10.213-12.033 10.213-7.631 10.213-2.436 6.281-.851 0 0" fill="#030404" fill-rule="evenodd"/>
<path transform="matrix(1,0,0,-1,135.5489,31.9413)" d="M0 0H-21.16V-3.316H-12.502V-26.091H-8.628V-3.316H0Z" fill="#030404" fill-rule="evenodd"/>
<path transform="matrix(1,0,0,-1,146.1437,31.9413)" d="M0 0-10.331-26.091H-6.662L-3.786-18.636H8.335L11.24-26.091H15.085L4.931 0H0ZM-2.436-15.643 2.289-3.052 7.014-15.643Z" fill="#030404" fill-rule="evenodd"/>
<path transform="matrix(1,0,0,-1,161.7571,35.2576)" d="M0 0H8.658V-22.774H12.502V0H21.16V3.316H0Z" fill="#030404" fill-rule="evenodd"/>
<path transform="matrix(1,0,0,-1,192.4263,46.586198)" d="M0 0H7.308V3.287H0V11.329H14.439V14.645H-3.874V-11.446H14.439V-8.13H0Z" fill="#030404" fill-rule="evenodd"/>
<path transform="matrix(1,0,0,-1,216.991,31.9413)" d="M0 0H-3.874V-26.091H13.588V-22.774H0Z" fill="#030404" fill-rule="evenodd"/>
<path transform="matrix(1,0,0,-1,248.4526,31.9413)" d="M0 0-7.425-11.886-15.144 0H-19.517L-9.48-14.733V-26.091H-5.606V-14.762L3.903 0Z" fill="#030404" fill-rule="evenodd"/>
<path transform="matrix(1,0,0,-1,274.426,32.352098)" d="M0 0-10.331-26.091H-6.662L-3.786-18.636H8.335L11.24-26.091H15.085L4.931 0ZM-2.436-15.672 2.289-3.082 7.014-15.672Z" fill="#416cb4" fill-rule="evenodd"/>
<path transform="matrix(1,0,0,-1,296.6972,32.352098)" d="M0 0V-26.091H3.845V0" fill="#416cb4" fill-rule="evenodd"/>
<path transform="matrix(1,0,0,-1,254.469,53.805898)" d="M0 0C1.28 0 2.319-1.038 2.319-2.319 2.319-3.599 1.28-4.637 0-4.637-1.28-4.637-2.319-3.599-2.319-2.319-2.319-1.038-1.28 0 0 0" fill="#416cb4" fill-rule="evenodd"/>
</g>
</g>
</svg>
